<svg width="20" height="20" viewBox="0 0 20 20" fill="none" xmlns="http://www.w3.org/2000/svg">
<path d="M18.7455 13.4372L18.7455 1.77481L12.8242 7.72701C14.9861 5.55362 18.697 7.06852 18.7203 10.134L18.7455 13.4372Z" fill="white"/>
<path d="M18.7455 1.77481L10.9706 1.77481L7.08311 1.77481L10.3671 1.78669C13.4601 1.79789 15.0055 5.53417 12.8242 7.72701L18.7455 1.77481Z" fill="white"/>
<path d="M1.77491 18.7454L12.8242 7.72701M18.7455 1.77481L10.9706 1.77481L7.08311 1.77481M18.7455 1.77481L18.7455 13.4372M18.7455 1.77481L12.8242 7.72701M3.19565 1.77481L7.08311 1.77481M18.7455 17.3246L18.7455 13.4372M7.08311 1.77481L10.3671 1.78669C13.4601 1.79789 15.0055 5.53417 12.8242 7.72701V7.72701M18.7455 13.4372L18.7203 10.134C18.697 7.06852 14.9861 5.55362 12.8242 7.72701V7.72701" stroke="white" stroke-width="2" stroke-linecap="round" stroke-linejoin="round"/>
</svg>
