<svg width="22" height="22" viewBox="0 0 22 22" fill="none" xmlns="http://www.w3.org/2000/svg">
<path d="M8.90278 21.5434C10.9881 21.9582 13.1495 21.7453 15.1139 20.9317C17.0782 20.1181 18.7571 18.7402 19.9383 16.9724C21.1195 15.2046 21.75 13.1262 21.75 11C21.75 10.5858 21.4142 10.25 21 10.25C20.5858 10.25 20.25 10.5858 20.25 11C20.25 12.8295 19.7075 14.6179 18.6911 16.139C17.6747 17.6602 16.23 18.8458 14.5398 19.5459C12.8496 20.246 10.9897 20.4292 9.19542 20.0723C7.4011 19.7154 5.7529 18.8344 4.45927 17.5407C3.16563 16.2471 2.28465 14.5989 1.92774 12.8046C1.57083 11.0103 1.75401 9.1504 2.45412 7.46018C3.15423 5.76996 4.33983 4.32531 5.86098 3.30891C7.38213 2.2925 9.17053 1.75 11 1.75C11.4142 1.75 11.75 1.41421 11.75 1C11.75 0.585787 11.4142 0.25 11 0.25C8.87386 0.25 6.79545 0.880478 5.02763 2.0617C3.2598 3.24293 1.88194 4.92185 1.0683 6.88615C0.254658 8.85046 0.0417719 11.0119 0.456563 13.0972C0.871354 15.1825 1.89519 17.098 3.39861 18.6014C4.90202 20.1048 6.81749 21.1287 8.90278 21.5434Z" fill="#0D1723"/>
<path d="M11 7.25C11.4142 7.25 11.75 7.58579 11.75 8V10.25H14C14.4142 10.25 14.75 10.5858 14.75 11C14.75 11.4142 14.4142 11.75 14 11.75H11.75L11.75 14C11.75 14.4142 11.4142 14.75 11 14.75C10.5858 14.75 10.25 14.4142 10.25 14V11.75H8.00001C7.58579 11.75 7.25001 11.4142 7.25001 11C7.25001 10.5858 7.58579 10.25 8.00001 10.25H10.25L10.25 8C10.25 7.58579 10.5858 7.25 11 7.25Z" fill="#0D1723"/>
<path d="M13.6869 0.588612C13.2858 0.485366 12.8769 0.726856 12.7737 1.128C12.6704 1.52914 12.9119 1.93802 13.3131 2.04127C16.5625 2.8776 19.1223 5.43745 19.9586 8.68684C20.0619 9.08798 20.4708 9.32947 20.8719 9.22622C21.273 9.12298 21.5145 8.71409 21.4113 8.31295C20.4387 4.5343 17.4656 1.56117 13.6869 0.588612Z" fill="#0D1723"/>
</svg>
