<svg width="23" height="31" viewBox="0 0 23 31" fill="none" xmlns="http://www.w3.org/2000/svg">
<path d="M22.6043 12.1765C23.0757 9.02419 20.6758 7.32971 17.394 6.19932L18.4587 1.92925L15.8593 1.28156L14.823 5.43921C14.1396 5.26877 13.4379 5.10818 12.7404 4.94898L13.7843 0.7639L11.1866 0.116211L10.1214 4.38489C9.5559 4.25614 9.00049 4.12889 8.46163 3.99482L8.46464 3.98139L4.88013 3.08627L4.18867 5.86251C4.18867 5.86251 6.11715 6.30457 6.07651 6.33177C7.12909 6.59449 7.31944 7.29127 7.28783 7.84355L6.07512 12.7082C6.1476 12.7266 6.24162 12.7532 6.34536 12.7949C6.25864 12.7733 6.16636 12.7498 6.0706 12.7269L4.3708 19.5415C4.24216 19.8613 3.91566 20.3413 3.17974 20.159C3.20579 20.1968 1.29052 19.6875 1.29052 19.6875L0 22.6629L3.38259 23.5062C4.01187 23.664 4.62853 23.8291 5.23581 23.9844L4.16019 28.3034L6.7565 28.9511L7.8217 24.6779C8.53099 24.8704 9.21932 25.0481 9.89317 25.2155L8.83156 29.4685L11.431 30.1162L12.5065 25.8053C16.9389 26.6441 20.2717 26.3059 21.6745 22.2968C22.8049 19.069 21.6183 17.2072 19.2864 15.9931C20.9848 15.6015 22.2632 14.484 22.6043 12.1765ZM16.6654 20.5043C15.8621 23.7321 10.4275 21.9872 8.66553 21.5497L10.0929 15.8277C11.8548 16.2676 17.5048 17.138 16.6654 20.5043ZM17.4693 12.1297C16.7365 15.0657 12.2132 13.5741 10.7459 13.2083L12.04 8.01885C13.5073 8.3846 18.2324 9.06726 17.4693 12.1297Z" fill="white"/>
</svg>
