<svg width="29" height="27" viewBox="0 0 29 27" fill="none" xmlns="http://www.w3.org/2000/svg">
<path fill-rule="evenodd" clip-rule="evenodd" d="M17.3827 14.097C17.2236 14.109 16.4016 14.158 14.568 14.158C13.1096 14.158 12.0741 14.1143 11.7108 14.097C6.07478 13.8491 1.86795 12.868 1.86795 11.6933C1.86795 10.5186 6.07478 9.53885 11.7108 9.28695V13.1199C12.0794 13.1464 13.1348 13.2087 14.5932 13.2087C16.3433 13.2087 17.2196 13.1358 17.3774 13.1212V9.2896C23.0015 9.54018 27.1991 10.5213 27.1991 11.6933C27.1991 12.8653 23.0029 13.8464 17.3774 14.0957L17.3827 14.097ZM17.3827 8.89318V5.46328H25.2316V0.23291H3.86199V5.46328H11.7095V8.89185C5.331 9.18486 0.53418 10.4484 0.53418 11.9625C0.53418 13.4765 5.331 14.7387 11.7095 15.0331V26.0241H17.3814V15.0291C23.7453 14.7361 28.5342 13.4739 28.5342 11.9611C28.5342 10.4484 23.7493 9.18618 17.3814 8.89185L17.3827 8.89318Z" fill="white"/>
</svg>
