<svg width="31" height="29" viewBox="0 0 31 29" fill="none" xmlns="http://www.w3.org/2000/svg">
<path fill-rule="evenodd" clip-rule="evenodd" d="M3.66574 10.2888C1.25548 16.6883 4.57986 23.9187 11.0623 26.2456C11.3116 26.4119 11.5609 26.7442 11.5609 26.9935V28.1572C11.5609 28.3233 11.5609 28.4065 11.4778 28.4895C11.3948 28.822 11.0623 28.9881 10.7298 28.822C6.0758 27.326 2.5021 23.7523 1.00616 19.0983C-1.48708 11.2032 2.8346 2.80912 10.7298 0.315885C10.813 0.23291 10.9791 0.23291 11.0623 0.23291C11.3948 0.315885 11.5609 0.565209 11.5609 0.897707V2.06115C11.5609 2.47682 11.3948 2.72615 11.0623 2.8923C7.65492 4.13891 4.91236 6.7983 3.66574 10.2888ZM19.1238 0.648383C19.2068 0.315885 19.5393 0.149735 19.8718 0.315885C24.4426 1.81183 28.0995 5.38553 29.5954 10.1227C32.0886 18.0179 27.767 26.4119 19.8718 28.9051C19.7886 28.9881 19.6225 28.9881 19.5393 28.9881C19.2068 28.9051 19.0406 28.6558 19.0406 28.3233V27.1599C19.0406 26.7442 19.2068 26.4949 19.5393 26.3287C22.9466 25.0821 25.6892 22.4227 26.9358 18.9322C29.3461 12.5327 26.0217 5.30236 19.5393 2.97547C19.29 2.80912 19.0406 2.47682 19.0406 2.14433V0.980881C19.0406 0.814533 19.0406 0.731557 19.1238 0.648383ZM15.548 13.1972C19.0385 13.6127 20.7838 14.61 20.7838 17.5187C20.7838 19.7626 19.1217 21.5079 16.6285 21.9236V23.9182C16.5453 24.3336 16.296 24.583 15.9635 24.583H14.7169C14.3014 24.4998 14.0521 24.2505 14.0521 23.9182V21.9236C11.3096 21.5079 9.97982 20.0119 9.64753 17.9344V17.8512C9.64753 17.5187 9.89685 17.2694 10.2291 17.2694H11.6421C11.8914 17.2694 12.1407 17.4357 12.2237 17.768C12.473 19.0146 13.221 19.929 15.3819 19.929C16.9608 19.929 18.1244 19.0148 18.1244 17.685C18.1244 16.3552 17.3765 15.8566 15.0494 15.4411C11.5589 15.0254 9.89685 13.9452 9.89685 11.2026C9.89685 9.12482 11.4757 7.46272 13.969 7.13022V5.2188C14.0521 4.80313 14.3014 4.5538 14.6339 4.5538H15.8805C16.296 4.63698 16.5453 4.8863 16.5453 5.2188V7.2134C18.4567 7.37955 19.9526 8.79232 20.2851 10.6208V10.7039C20.2851 11.0362 20.0358 11.2856 19.7033 11.2856H18.3737C18.1244 11.2856 17.8751 11.1194 17.7919 10.8701C17.3765 9.62347 16.5453 9.12482 15.0494 9.12482C13.3873 9.12482 12.5562 9.8726 12.5562 11.0362C12.5562 12.1999 13.0548 12.8647 15.548 13.1972Z" fill="white"/>
</svg>
