<svg width="31" height="31" viewBox="0 0 31 31" fill="none" xmlns="http://www.w3.org/2000/svg">
<path fill-rule="evenodd" clip-rule="evenodd" d="M15.0679 6.89621L9.24163 12.7225L5.85187 9.33221L15.0679 0.116211L24.2869 9.33497L20.8969 12.725L15.0679 6.89621ZM3.45799 11.7256L0.0678711 15.1162L3.45775 18.5056L6.84787 15.1155L3.45799 11.7256ZM15.0679 23.3362L9.24163 17.5103L5.84707 20.8954L5.85187 20.9002L15.0679 30.1162L24.2869 20.8976L24.2886 20.8958L20.8968 17.5076L15.0679 23.3362ZM26.678 11.7275L23.2879 15.1177L26.6779 18.5075L30.0679 15.1174L26.678 11.7275ZM18.5071 15.1135H18.5059L18.509 15.1152L18.5073 15.1171L15.0674 18.557L11.6304 15.1197L11.6256 15.1147L11.6304 15.1101L12.2328 14.5075L12.5249 14.2154L15.0674 11.6737L18.5071 15.1135Z" fill="white"/>
</svg>
