<svg width="43" height="34" viewBox="0 0 43 34" fill="none" xmlns="http://www.w3.org/2000/svg">
<path d="M2.86095 33.5H4.93787C6.26923 33.5 7.29882 32.4682 7.29882 31.1518V28.1809C11.2396 28.4299 16.9379 28.6078 21.5 28.6078C26.0621 28.6078 31.7781 28.4299 35.7189 28.1809V31.1518C35.7189 32.4682 36.7308 33.5 38.0621 33.5H40.1568C41.4882 33.5 42.5 32.4682 42.5 31.1518V20.9049C42.5 17.8984 41.8965 16.2261 40.2633 14.0914L38.7544 12.1523C38.1154 8.95013 36.926 5.58787 36.3225 4.27143C35.3639 2.26119 33.5355 1.06927 31.1746 0.749057C29.9852 0.588949 26.0976 0.5 21.5 0.5C16.9201 0.5 13.0325 0.606739 11.8432 0.749057C9.48225 1.03369 7.63609 2.26119 6.69527 4.27143C6.07396 5.58787 4.90237 8.95013 4.24556 12.1523L2.75444 14.0914C1.10355 16.2261 0.5 17.8984 0.5 20.9049V31.1518C0.5 32.4682 1.52959 33.5 2.86095 33.5ZM7.83136 10.658C8.23965 8.71887 9.10947 6.17493 9.69527 5.14313C10.1746 4.30701 10.6893 3.93342 11.6479 3.80889C12.997 3.631 16.0148 3.50647 21.5 3.50647C27.003 3.50647 30.0207 3.59542 31.3521 3.80889C32.3107 3.95121 32.8077 4.30701 33.3047 5.14313C33.9083 6.15714 34.7249 8.71887 35.1864 10.658C35.3462 11.3162 35.0621 11.5652 34.3876 11.5296C31.4408 11.334 27.926 11.1561 21.5 11.1561C15.0917 11.1561 11.5769 11.334 8.63018 11.5296C7.93787 11.5652 7.6716 11.3162 7.83136 10.658ZM8.70118 23.8046C7.0858 23.8046 5.8432 22.5593 5.8432 20.9404C5.8432 19.3038 7.0858 18.0763 8.70118 18.0763C10.3166 18.0763 11.5592 19.3038 11.5592 20.9404C11.5592 22.5593 10.3166 23.8046 8.70118 23.8046ZM34.2988 23.8046C32.6834 23.8046 31.4586 22.5593 31.4586 20.9404C31.4586 19.3038 32.6834 18.0763 34.2988 18.0763C35.932 18.0763 37.1568 19.3038 37.1568 20.9404C37.1568 22.5593 35.932 23.8046 34.2988 23.8046ZM16.8136 23.093C15.5888 23.093 14.7544 22.2569 14.7544 21.0294C14.7544 19.8197 15.5888 18.9836 16.8136 18.9836H26.2041C27.4112 18.9836 28.2456 19.8197 28.2456 21.0294C28.2456 22.2569 27.4112 23.093 26.2041 23.093H16.8136Z" fill="currentColor"/>
</svg>
