<svg width="41" height="38" viewBox="0 0 41 38" fill="none" xmlns="http://www.w3.org/2000/svg">
<g clip-path="url(#clip0_20_601)">
<path d="M0.589355 14.4189C13.8843 14.4189 27.1281 14.4189 40.4358 14.4189C40.4358 14.5853 40.4358 14.7516 40.4358 14.918C40.4358 20.0491 40.4358 25.1803 40.4358 30.3243C40.4358 34.4062 37.4288 37.426 33.3597 37.426C24.7864 37.426 16.2132 37.426 7.6399 37.426C3.60919 37.426 0.589355 34.3934 0.589355 30.3626C0.589355 25.2187 0.589355 20.0619 0.589355 14.918C0.589355 14.7516 0.589355 14.5981 0.589355 14.4189ZM16.3539 23.0946C16.3539 23.0818 16.3539 23.0818 16.3539 23.069C15.9061 23.069 15.4582 23.0562 15.0103 23.069C14.2298 23.0946 13.6668 23.4784 13.462 24.1182C13.2445 24.7836 13.4748 25.4362 14.1274 25.9225C14.844 26.4471 15.5606 26.9845 16.3027 27.4964C16.5331 27.6499 16.5714 27.8035 16.4819 28.0594C16.1876 28.9039 15.9188 29.7612 15.6501 30.6058C15.407 31.3735 15.599 32.0261 16.1748 32.4484C16.7378 32.8578 17.4288 32.8323 18.0814 32.3588C18.7723 31.8726 19.4633 31.3735 20.1287 30.8617C20.4102 30.6442 20.6021 30.6058 20.9093 30.8489C21.5618 31.3607 22.24 31.8342 22.9182 32.3204C23.622 32.8323 24.3258 32.8706 24.9016 32.4356C25.4774 32.0133 25.6437 31.3479 25.3878 30.5418C25.1191 29.7228 24.8632 28.9039 24.5817 28.085C24.4921 27.8163 24.5305 27.6627 24.7736 27.4964C25.4774 27.0101 26.1684 26.4855 26.8721 25.9736C27.5631 25.4618 27.8062 24.8348 27.5887 24.1566C27.384 23.4784 26.8082 23.0946 25.9508 23.0818C25.0935 23.069 24.2234 23.069 23.3661 23.0818C23.059 23.0946 22.9182 22.9922 22.8286 22.6979C22.5855 21.8918 22.3168 21.0856 22.0481 20.2795C21.7794 19.4477 21.2419 18.9999 20.5126 19.0127C19.796 19.0127 19.2714 19.4605 19.0027 20.2667C18.8747 20.6633 18.7467 21.06 18.6188 21.4567C18.4396 21.9813 18.4013 22.7235 18.043 22.9794C17.6335 23.2353 16.9169 23.069 16.3539 23.0946Z" fill="currentColor"/>
<path d="M0.5 12.8196C0.589571 11.5144 0.551184 10.2092 0.794306 8.98081C1.40851 5.92259 4.22361 3.6961 7.33301 3.64492C8.12636 3.63212 8.91971 3.64492 9.77703 3.64492C9.77703 4.45106 9.76424 5.23161 9.77703 5.99937C9.81542 7.67563 11.1718 9.0064 12.8225 9.0192C14.4859 9.032 15.8551 7.70122 15.8935 6.03775C15.9191 5.2572 15.8935 4.47665 15.8935 3.67051C18.9645 3.67051 21.9843 3.67051 25.0937 3.67051C25.0937 4.41267 25.0809 5.18043 25.0937 5.93539C25.1065 6.95906 25.516 7.80359 26.3349 8.405C27.3202 9.12157 28.4079 9.22393 29.4955 8.68651C30.5704 8.16187 31.1462 7.25337 31.1974 6.05055C31.2358 5.27 31.2102 4.48945 31.2102 3.7089C35.3433 3.18427 39.1564 4.52784 40.2313 9.15996C40.5 10.3244 40.3976 11.5656 40.4744 12.8196C27.1539 12.8196 13.8973 12.8196 0.5 12.8196Z" fill="currentColor"/>
<path d="M14.3706 4.02863C14.3706 4.65562 14.3833 5.26983 14.3706 5.89683C14.3578 6.79254 13.7052 7.47072 12.8478 7.48352C11.9905 7.48352 11.3123 6.81813 11.3123 5.92242C11.2995 4.65562 11.2995 3.40163 11.3123 2.13483C11.3251 1.23912 12.0033 0.57373 12.8478 0.57373C13.6796 0.586526 14.345 1.23912 14.3578 2.10924C14.3833 2.74903 14.3706 3.38883 14.3706 4.02863Z" fill="currentColor"/>
<path d="M29.7001 4.05439C29.7001 4.68139 29.7129 5.29559 29.7001 5.92259C29.6873 6.81831 29.0092 7.48369 28.1646 7.48369C27.3201 7.48369 26.6547 6.80551 26.6419 5.897C26.6291 4.6558 26.6291 3.4018 26.6419 2.1606C26.6547 1.25209 27.3073 0.586701 28.1518 0.573905C29.022 0.561109 29.6873 1.25209 29.7001 2.17339C29.7129 2.80039 29.7001 3.42739 29.7001 4.05439Z" fill="currentColor"/>
</g>
<defs>
<clipPath id="clip0_20_601">
<rect width="40" height="36.8522" fill="currentColor" transform="translate(0.5 0.57373)"/>
</clipPath>
</defs>
</svg>
