<svg width="37" height="40" viewBox="0 0 37 40" fill="none" xmlns="http://www.w3.org/2000/svg">
<path d="M18.5 0.499999C16.4312 0.517303 14.9283 3.26841 14.9283 6.5732L14.9283 13.5461C14.9283 14.5151 14.7692 14.8784 14.0972 15.4494L1.13654 27.0768C0.71218 27.4401 0.499999 27.89 0.5 28.409L0.5 30.4161C0.5 30.866 0.906679 31.1256 1.40177 30.9006L14.9283 24.9139L15.9538 33.7036L10.0835 36.8354C9.64145 37.0603 9.44696 37.441 9.44696 38.012L9.44696 38.756C9.44696 39.2059 9.74754 39.5 10.2073 39.5L26.7927 39.5C27.2525 39.5 27.5354 39.2059 27.5354 38.756L27.5354 38.012C27.5354 37.441 27.3409 37.0603 26.9165 36.8354L21.0462 33.7036L22.0717 24.9139L35.5982 30.9006C36.0756 31.1256 36.5 30.866 36.5 30.4161L36.5 28.409C36.5 27.89 36.2701 27.4401 35.8635 27.0768L22.8851 15.4494C22.2308 14.8784 22.0717 14.5151 22.0717 13.5461L22.0717 6.5732C22.0717 3.26841 20.5511 0.517303 18.5 0.499999Z" fill="currentColor"/>
</svg>
