<svg width="41" height="30" viewBox="0 0 41 30" fill="none" xmlns="http://www.w3.org/2000/svg">
<path d="M10.3312 14.2373V16.2712H20.5007H30.6702V14.2373C30.6702 10.872 33.3945 8.14308 36.758 8.13562C36.7408 7.46846 36.7022 6.98399 36.6155 6.54842C35.9736 3.3211 33.4508 0.798276 30.2234 0.156323C29.4376 0 28.4925 0 26.6024 0H20.5007H14.399C12.5089 0 11.5638 0 10.7779 0.156323C7.5506 0.798276 5.02777 3.3211 4.38582 6.54842C4.29918 6.98399 4.26055 7.46846 4.24334 8.13562C7.60684 8.14309 10.3312 10.872 10.3312 14.2373Z" fill="currentColor"/>
<path d="M33.6075 26.4406H7.39278C6.82926 26.4406 6.28079 26.3762 5.75435 26.2542V28.4745C5.75435 29.317 5.0714 29.9999 4.22893 29.9999C3.38646 29.9999 2.70351 29.317 2.70351 28.4745V24.7144C1.14773 23.388 0.161133 21.4137 0.161133 19.209V14.2372C0.161133 11.9907 1.98235 10.1694 4.22893 10.1694C6.47551 10.1694 8.29673 11.9906 8.29673 14.2372V16.6779C8.29673 17.5765 9.02521 18.305 9.92384 18.305H31.0764C31.975 18.305 32.7035 17.5765 32.7035 16.6779V14.2372C32.7035 11.9906 34.5247 10.1694 36.7713 10.1694C39.0179 10.1694 40.8391 11.9907 40.8391 14.2372V19.209C40.8391 21.4137 39.8525 23.388 38.2967 24.7144V28.4745C38.2967 29.317 37.6138 29.9999 36.7713 29.9999C35.9288 29.9999 35.2459 29.317 35.2459 28.4745V26.2542C34.7194 26.3762 34.171 26.4406 33.6075 26.4406Z" fill="currentColor"/>
</svg>
