<svg width="24" height="23" viewBox="0 0 24 23" fill="none" xmlns="http://www.w3.org/2000/svg">
<path d="M14.9555 3.86252C15.3597 3.45685 15.8082 3.12055 16.3814 3.02923C16.5035 3.00978 16.6266 3 16.75 3C16.8734 3 16.9966 3.00978 17.1187 3.02923C17.6919 3.12055 18.1404 3.45685 18.5445 3.86252C18.9383 4.25783 19.3783 4.81274 19.9114 5.48522L21.3377 7.28403C21.5951 7.6086 21.5406 8.08034 21.216 8.33768C20.8914 8.59503 20.4197 8.54054 20.1623 8.21597L18.7645 6.453C18.2063 5.74898 17.8227 5.26697 17.5 4.93952L17.5 17.75C17.5 18.1642 17.1642 18.5 16.75 18.5C16.3358 18.5 16 18.1642 16 17.75L16 4.93952C15.6774 5.26697 15.2938 5.74897 14.7356 6.453L13.3377 8.21597C13.0804 8.54054 12.6086 8.59503 12.2841 8.33768C11.9595 8.08034 11.905 7.6086 12.1623 7.28403L13.5886 5.48521C14.1218 4.81274 14.5618 4.25783 14.9555 3.86252Z" fill="#1E1E1E"/>
<path d="M7.50003 4.75C7.50003 4.33579 7.16424 4 6.75003 4C6.33581 4 6.00003 4.33579 6.00003 4.75L6.00003 17.5605C5.67737 17.233 5.29378 16.751 4.73556 16.047L3.33771 14.284C3.08036 13.9595 2.60863 13.905 2.28406 14.1623C1.95949 14.4197 1.905 14.8914 2.16235 15.216L3.5886 17.0148C4.12178 17.6873 4.56175 18.2422 4.95554 18.6375C5.35965 19.0432 5.80819 19.3794 6.38136 19.4708C6.50347 19.4902 6.62664 19.5 6.75003 19.5C6.87341 19.5 6.99659 19.4902 7.1187 19.4708C7.69187 19.3794 8.14041 19.0432 8.54452 18.6375C8.93831 18.2422 9.37828 17.6872 9.91146 17.0148L11.3377 15.216C11.5951 14.8914 11.5406 14.4197 11.216 14.1623C10.8914 13.905 10.4197 13.9595 10.1623 14.284L8.7645 16.047C8.20628 16.751 7.82269 17.233 7.50003 17.5605L7.50003 4.75Z" fill="#1E1E1E"/>
</svg>
