<svg width="34" height="32" viewBox="0 0 34 32" fill="none" xmlns="http://www.w3.org/2000/svg">
<path fill-rule="evenodd" clip-rule="evenodd" d="M8.08425 3.72941C8.08425 5.80255 6.52374 7.4614 4.01809 7.4614H3.97216C1.55965 7.4614 0 5.80255 0 3.72941C0 1.61242 1.60715 0 4.06544 0C6.52374 0 8.03761 1.61242 8.08425 3.72941ZM7.61085 10.4085V31.9995H0.424817V10.4085H7.61085ZM33.5261 31.9995L33.5264 19.6198C33.5264 12.988 29.9813 9.90143 25.2526 9.90143C21.4373 9.90143 19.7291 11.9971 18.7753 13.4672V10.409H11.5884C11.6832 12.435 11.5884 32 11.5884 32H18.7753V19.9418C18.7753 19.2965 18.822 18.6528 19.012 18.1908C19.5313 16.9017 20.7138 15.567 22.6991 15.567C25.3005 15.567 26.3404 17.5468 26.3404 20.4482V31.9995H33.5261Z" fill="white"/>
</svg>
