<svg width="32" height="32" viewBox="0 0 32 32" fill="none" xmlns="http://www.w3.org/2000/svg">
<path d="M16 2.93333C20.2667 2.93333 20.8 2.93333 22.5333 3.06667C26.9333 3.2 28.9333 5.33333 29.0667 9.6C29.2 11.3333 29.2 11.7333 29.2 16C29.2 20.2667 29.2 20.8 29.0667 22.4C28.9333 26.6667 26.8 28.8 22.5333 28.9333C20.8 29.0667 20.4 29.0667 16 29.0667C11.7333 29.0667 11.2 29.0667 9.6 28.9333C5.2 28.8 3.2 26.6667 3.06667 22.4C2.93333 20.6667 2.93333 20.2667 2.93333 16C2.93333 11.7333 2.93333 11.2 3.06667 9.6C3.2 5.33333 5.33333 3.2 9.6 3.06667C11.2 2.93333 11.7333 2.93333 16 2.93333ZM16 0C11.6 0 11.0667 0 9.46667 0.133333C3.6 0.4 0.4 3.6 0.133333 9.46667C0 11.0667 0 11.6 0 16C0 20.4 0 20.9333 0.133333 22.5333C0.4 28.4 3.6 31.6 9.46667 31.8667C11.0667 32 11.6 32 16 32C20.4 32 20.9333 32 22.5333 31.8667C28.4 31.6 31.6 28.4 31.8667 22.5333C32 20.9333 32 20.4 32 16C32 11.6 32 11.0667 31.8667 9.46667C31.6 3.6 28.4 0.4 22.5333 0.133333C20.9333 0 20.4 0 16 0ZM16 7.73333C11.4667 7.73333 7.73333 11.4667 7.73333 16C7.73333 20.5333 11.4667 24.2667 16 24.2667C20.5333 24.2667 24.2667 20.5333 24.2667 16C24.2667 11.4667 20.5333 7.73333 16 7.73333ZM16 21.3333C13.0667 21.3333 10.6667 18.9333 10.6667 16C10.6667 13.0667 13.0667 10.6667 16 10.6667C18.9333 10.6667 21.3333 13.0667 21.3333 16C21.3333 18.9333 18.9333 21.3333 16 21.3333ZM24.5333 5.6C23.4667 5.6 22.6667 6.4 22.6667 7.46667C22.6667 8.53333 23.4667 9.33333 24.5333 9.33333C25.6 9.33333 26.4 8.53333 26.4 7.46667C26.4 6.4 25.6 5.6 24.5333 5.6Z" fill="white"/>
</svg>
