<svg width="39" height="32" viewBox="0 0 39 32" fill="none" xmlns="http://www.w3.org/2000/svg">
<path d="M18.802 8.5125L18.8859 9.89659L17.487 9.72711C12.3948 9.07744 7.94608 6.87419 4.1689 3.17387L2.32227 1.33783L1.84663 2.69367C0.839375 5.71607 1.4829 8.90796 3.58133 11.0547C4.7005 12.2411 4.44869 12.4106 2.51813 11.7044C1.84663 11.4784 1.25906 11.3089 1.2031 11.3937C1.00725 11.5914 1.67875 14.1618 2.21035 15.1787C2.93781 16.5911 4.42071 17.9752 6.0435 18.7943L7.41448 19.444L5.79169 19.4722C4.22485 19.4722 4.1689 19.5005 4.33677 20.0937C4.89636 21.9297 7.10671 23.8787 9.56888 24.7261L11.3036 25.3193L9.79271 26.2232C7.55438 27.5226 4.92433 28.257 2.29429 28.3135C1.03523 28.3417 0 28.4547 0 28.5394C0 28.8219 3.41346 30.4037 5.39998 31.0252C11.3595 32.8612 18.4383 32.0703 23.7543 28.9349C27.5315 26.7034 31.3087 22.2687 33.0714 17.9752C34.0227 15.6872 34.974 11.5067 34.974 9.50114C34.974 8.20179 35.0579 8.03231 36.6247 6.47874C37.548 5.57484 38.4154 4.5862 38.5833 4.30374C38.8631 3.76705 38.8351 3.76705 37.4082 4.24724C35.0299 5.09465 34.6942 4.98166 35.8693 3.71056C36.7367 2.80666 37.7719 1.16835 37.7719 0.688154C37.7719 0.603414 37.3522 0.744648 36.8765 0.998868C36.3729 1.28134 35.2538 1.70504 34.4144 1.95926L32.9035 2.43945L31.5325 1.50731C30.7771 0.998868 29.7139 0.433934 29.1543 0.264453C27.7274 -0.131001 25.545 -0.0745078 24.2579 0.37744C20.7605 1.64854 18.5502 4.92516 18.802 8.5125Z" fill="white"/>
</svg>
