<svg width="19" height="18" viewBox="0 0 19 18" fill="none" xmlns="http://www.w3.org/2000/svg">
<g clip-path="url(#clip0_20_360)">
<path d="M9.94071 14.9186C9.66931 14.7542 9.329 14.7542 9.05761 14.9187L4.89532 17.4415C4.25017 17.8325 3.45263 17.2539 3.62406 16.5193L4.72755 11.7903C4.79924 11.4831 4.69529 11.1614 4.45739 10.9542L0.793637 7.76362C0.226126 7.2694 0.531211 6.33592 1.28105 6.27224L6.10934 5.86223C6.42375 5.83553 6.69766 5.63723 6.8212 5.34688L8.71605 0.893403C9.01015 0.202199 9.98985 0.202199 10.2839 0.893404L12.1788 5.34688C12.3023 5.63724 12.5762 5.83553 12.8907 5.86223L17.7189 6.27224C18.4688 6.33592 18.7739 7.2694 18.2064 7.76362L14.5426 10.9542C14.3047 11.1614 14.2008 11.4831 14.2725 11.7903L15.376 16.5196C15.5474 17.2542 14.75 17.8328 14.1048 17.4418L9.94071 14.9186Z" fill="#FFC500"/>
</g>
<defs>
<clipPath id="clip0_20_360">
<rect width="18" height="17.25" fill="white" transform="translate(0.5 0.375)"/>
</clipPath>
</defs>
</svg>
