<svg width="20" height="19" viewBox="0 0 20 19" fill="none" xmlns="http://www.w3.org/2000/svg">
<path d="M18.225 12.6772L18.225 1.0148L12.3036 6.967C14.4656 4.79361 18.1765 6.30851 18.1998 9.37397L18.225 12.6772Z" fill="#0D1723"/>
<path d="M18.225 1.0148L10.4501 1.0148L6.5626 1.0148L9.84657 1.02668C12.9396 1.03788 14.485 4.77416 12.3036 6.967L18.225 1.0148Z" fill="#0D1723"/>
<path d="M1.2544 17.9854L12.3036 6.967M18.225 1.0148L10.4501 1.0148L6.5626 1.0148M18.225 1.0148L18.225 12.6772M18.225 1.0148L12.3036 6.967M2.67515 1.0148L6.5626 1.0148M18.225 16.5646L18.225 12.6772M6.5626 1.0148L9.84657 1.02668C12.9396 1.03788 14.485 4.77416 12.3036 6.967V6.967M18.225 12.6772L18.1998 9.37397C18.1765 6.30851 14.4656 4.79361 12.3036 6.967V6.967" stroke="#0D1723" stroke-width="2" stroke-linecap="round" stroke-linejoin="round"/>
</svg>
