<svg width="20" height="20" viewBox="0 0 20 20" fill="none" xmlns="http://www.w3.org/2000/svg">
<path d="M18.7455 13.4667L18.7455 1.80435L12.8242 7.75655C14.9861 5.58316 18.697 7.09806 18.7203 10.1635L18.7455 13.4667Z" fill="white"/>
<path d="M18.7455 1.80435L10.9706 1.80435L7.08311 1.80435L10.3671 1.81623C13.4601 1.82743 15.0055 5.56371 12.8242 7.75655L18.7455 1.80435Z" fill="white"/>
<path d="M1.77491 18.7749L12.8242 7.75655M18.7455 1.80435L10.9706 1.80435L7.08311 1.80435M18.7455 1.80435L18.7455 13.4667M18.7455 1.80435L12.8242 7.75655M3.19565 1.80435L7.08311 1.80435M18.7455 17.3542L18.7455 13.4667M7.08311 1.80435L10.3671 1.81623C13.4601 1.82743 15.0055 5.56371 12.8242 7.75655V7.75655M18.7455 13.4667L18.7203 10.1635C18.697 7.09806 14.9861 5.58316 12.8242 7.75655V7.75655" stroke="white" stroke-width="2" stroke-linecap="round" stroke-linejoin="round"/>
</svg>
