<svg width="64" height="48" viewBox="0 0 64 48" fill="none" xmlns="http://www.w3.org/2000/svg">
<path fill-rule="evenodd" clip-rule="evenodd" d="M28.0215 29.3767H43.7404C49.5807 29.3767 54.3647 24.8296 54.3647 19.1459C54.3647 13.4621 49.6428 8.97494 43.8025 8.97494H38.77L28.0215 0.000586544H43.7404C54.7375 -0.0592425 63.6842 8.49631 63.6842 19.0861C63.7463 26.9237 58.7759 33.9835 51.196 36.9151L63.6221 47.2655H49.4564L28.0215 29.3767Z" fill="white"/>
<path fill-rule="evenodd" clip-rule="evenodd" d="M35.7254 17.9493H20.0065C14.1663 17.9493 9.38223 22.4963 9.38223 28.1801C9.38223 33.8638 14.1041 38.4108 20.0065 38.4108H25.039L35.7254 47.3852H20.0065C9.00945 47.3852 0.062706 38.8296 0.000575851 28.2997C-0.0615543 20.4023 4.90886 13.3425 12.4887 10.4108L0.062706 0.000579834H14.2905L35.7254 17.9493Z" fill="white"/>
<path fill-rule="evenodd" clip-rule="evenodd" d="M35.7254 17.9493H20.0065C14.1663 17.9493 9.38223 22.4963 9.38223 28.1801C9.38223 33.8638 14.1041 38.4108 20.0065 38.4108H25.039L35.7254 47.3852H20.0065C9.00945 47.3852 0.062706 38.8296 0.000575851 28.2997C-0.0615543 20.4023 4.90886 13.3425 12.4887 10.4108L0.062706 0.000579834H14.2905L35.7254 17.9493Z" fill="white"/>
</svg>
