<svg width="57" height="57" viewBox="0 0 57 57" fill="none" xmlns="http://www.w3.org/2000/svg">
<path fill-rule="evenodd" clip-rule="evenodd" d="M8.23656 24.4816C5.5744 25.7908 2.92091 27.1087 0.111328 28.5046C0.197283 28.5377 0.273716 28.5674 0.34333 28.5944C0.547614 28.6738 0.693188 28.7303 0.848409 28.7821L0.848475 28.7821C6.08607 30.5681 11.3237 32.3542 16.5699 34.1142C17.1422 34.305 17.4718 34.6258 17.7319 35.1547C20.5099 40.841 23.3085 46.5136 26.1094 52.1907C26.456 52.8932 26.8026 53.5958 27.1492 54.2985C27.5308 55.0788 27.921 55.8591 28.3806 56.7695C28.4497 56.5834 28.4992 56.4593 28.5392 56.3591C28.5645 56.2959 28.5859 56.2423 28.606 56.1886C28.9455 55.1918 29.2853 54.1953 29.6251 53.199C31.0644 48.9782 32.5029 44.7599 33.913 40.5302C34.1471 39.8279 34.5113 39.4117 35.1791 39.0823C39.954 36.7503 44.7203 34.3967 49.4871 32.0428C51.4725 31.0623 53.4581 30.0819 55.4444 29.1029C55.6627 28.999 55.8778 28.8888 56.1196 28.765C56.2814 28.6822 56.4552 28.5932 56.6498 28.4959C56.5333 28.4544 56.4346 28.419 56.3476 28.3878C56.1627 28.3215 56.031 28.2743 55.8954 28.2272C54.1495 27.6318 52.4026 27.0384 50.6557 26.4449C47.1621 25.2581 43.6685 24.0712 40.1825 22.869C39.801 22.7389 39.3501 22.4528 39.1853 22.1147C36.3342 16.385 33.5063 10.6496 30.6779 4.91306C30.0481 3.63565 29.4183 2.35819 28.7881 1.08073C28.6667 0.829293 28.5366 0.577857 28.3545 0.231049C28.2996 0.376328 28.2535 0.494935 28.2131 0.598948C28.1642 0.724611 28.1237 0.828974 28.0857 0.933336C27.7635 1.88277 27.4409 2.83249 27.1183 3.78244C25.6526 8.09816 24.1852 12.4186 22.7354 16.7391C22.562 17.2593 22.2845 17.5715 21.7989 17.8056C17.2725 20.0251 12.7548 22.2532 8.23706 24.4814L8.23656 24.4816ZM31.2675 10.5455L31.2599 10.5301L31.2472 10.5043C30.3941 8.77641 29.5377 7.04177 28.6754 5.29445C26.3161 12.2691 23.9996 19.1097 21.6586 26.0229L21.6563 26.0297L19.7437 31.6779C22.8284 30.1515 25.8668 28.6505 28.8924 27.1558L28.894 27.155C31.7282 25.7549 34.5511 24.3604 37.3903 22.9557C35.3443 18.8032 33.3155 14.6937 31.2675 10.5455ZM11.8851 30.4709L11.8922 30.4733L11.9076 30.4785C13.7523 31.1045 15.5884 31.7276 17.4371 32.3542C18.095 30.4097 18.749 28.481 19.4065 26.5417C20.127 24.4169 20.8518 22.2794 21.5907 20.0945C17.9454 21.9026 14.3826 23.662 10.8037 25.4293C8.94242 26.3484 7.07677 27.2697 5.19285 28.2012C7.45213 28.9667 9.66307 29.7169 11.8615 30.4629L11.8692 30.4655L11.8851 30.4709ZM19.9778 35.3194C20.7525 36.8906 21.5194 38.4457 22.2827 39.9933C24.2108 43.9028 26.1152 47.7643 28.0597 51.7148C28.6442 49.9903 29.2183 48.2924 29.7888 46.6054L29.7899 46.6022L29.7902 46.6013C30.5988 44.2099 31.4001 41.8401 32.2134 39.4464C28.1724 38.0852 24.1835 36.7413 19.9778 35.3194ZM20.8699 33.5072L20.8699 33.5071L20.8694 33.5068C20.8213 33.4783 20.7638 33.4441 20.6889 33.4033C21.5104 32.9991 22.2779 32.6146 23.0284 32.2386C23.2761 32.1145 23.522 31.9913 23.7673 31.8687C25.0442 31.2395 26.32 30.6097 27.5953 29.9802L27.5975 29.9791L27.5997 29.978C31.1208 28.2398 34.6388 26.5031 38.1707 24.7851C38.5089 24.6117 39.0292 24.5857 39.3934 24.7071C42.1594 25.6185 44.9119 26.5524 47.6639 27.4862L47.6641 27.4863L47.6643 27.4863C48.7342 27.8493 49.804 28.2123 50.8745 28.574C51.0098 28.6167 51.1452 28.6711 51.3573 28.7564L51.5076 28.8167C50.1114 29.519 48.8281 30.1606 47.5447 30.7936L45.6238 31.7411C41.7481 33.6532 37.8759 35.5634 33.991 37.4609C33.6789 37.617 33.2193 37.7037 32.8984 37.5997C28.9444 36.2905 24.9991 34.9467 21.0537 33.6029L21.0535 33.6028L21.0533 33.6028L21.0531 33.6027C20.9953 33.5817 20.9439 33.5512 20.87 33.5072L20.8699 33.5072Z" fill="white"/>
</svg>
