<svg width="66" height="67" viewBox="0 0 66 67" fill="transparent" xmlns="http://www.w3.org/2000/svg">
<path fill-rule="evenodd" clip-rule="evenodd" d="M33.1881 65.808C51.0311 65.808 65.4958 51.3433 65.4958 33.5003C65.4958 15.6572 51.0311 1.19258 33.1881 1.19258C15.345 1.19258 0.880371 15.6572 0.880371 33.5003C0.880371 51.3433 15.345 65.808 33.1881 65.808Z" stroke="white"/>
<path fill-rule="evenodd" clip-rule="evenodd" d="M23.966 17.3483C26.005 17.3464 28.0458 17.3483 30.0848 17.3464C30.0866 20.4984 30.083 23.6504 30.0866 26.8023C32.4633 26.8042 34.8382 26.8023 37.215 26.8042C37.2168 28.1291 37.2168 29.4558 37.215 30.7826C34.8382 30.7844 32.4633 30.7826 30.0866 30.7844C30.0866 32.1093 30.083 33.4361 30.0884 34.7628C32.4651 34.7628 34.84 34.761 37.215 34.7628C37.2168 36.0896 37.2168 37.4145 37.215 38.7412C34.8382 38.7431 32.4615 38.7412 30.0866 38.7431C30.0866 40.2181 30.0848 41.6931 30.0866 43.1681C35.1561 43.1699 40.2256 43.1681 45.2951 43.1699C45.2969 44.9303 45.2969 46.6925 45.2951 48.4547C38.1848 48.4547 31.0763 48.4565 23.966 48.4528C23.9642 45.2156 23.966 41.9803 23.9642 38.7431C23.0016 38.7412 22.0372 38.7431 21.0728 38.7412C21.0728 37.4145 21.0728 36.0877 21.0728 34.7628C22.0372 34.7628 22.9998 34.7628 23.9642 34.7628C23.966 33.4361 23.966 32.1093 23.9642 30.7844C22.9998 30.7826 22.0372 30.7826 21.0728 30.7844C21.0728 29.4558 21.0728 28.1291 21.0728 26.8023C22.0372 26.8023 22.9998 26.8042 23.9642 26.8023C23.966 23.6504 23.9624 20.5003 23.966 17.3483Z" fill="white"/>
</svg>
