<svg width="45" height="59" viewBox="0 0 45 59" fill="none" xmlns="http://www.w3.org/2000/svg">
<path fill-rule="evenodd" clip-rule="evenodd" d="M42.542 0.504347C45.0974 1.63599 45.3164 5.66973 43.8197 8.00602C41.885 11.0176 35.0769 10.1415 36.099 4.17305C35.8252 4.08179 35.8617 3.97227 35.5149 4.28256C26.2793 20.8191 26.5166 39.4364 18.7046 52.432C17.0802 54.677 15.6565 55.7356 13.6123 56.9038C11.568 58.0719 10.0896 58.8203 6.74941 58.9845C3.40925 59.1305 2.07684 57.6886 2.07684 57.6886C-1.73788 55.2246 0.470639 50.7893 2.60615 49.8949C4.74166 49.0005 6.12883 49.3656 7.26047 49.8767C8.41036 50.3877 9.68802 52.4137 9.68802 52.4137C11.0204 49.0005 11.5863 47.1388 13.0282 41.6084C18.8689 17.5154 21.4972 -3.5294 42.542 0.504347Z" fill="white"/>
<path fill-rule="evenodd" clip-rule="evenodd" d="M11.075 24.7068H31.4993C33.1237 24.7068 34.4561 26.021 34.4561 27.6637C34.4561 29.2881 33.142 30.6205 31.4993 30.6205H11.075C9.45058 30.6205 8.11816 29.3064 8.11816 27.6637C8.13642 26.0392 9.45058 24.7068 11.075 24.7068Z" fill="white"/>
<path fill-rule="evenodd" clip-rule="evenodd" d="M13.7034 15.0696H34.1277C35.7521 15.0696 37.0846 16.3838 37.0846 18.0265C37.0846 19.6509 35.7704 20.9834 34.1277 20.9834H13.7034C12.079 20.9834 10.7466 19.6692 10.7466 18.0265C10.7648 16.402 12.079 15.0696 13.7034 15.0696Z" fill="white"/>
</svg>
