<svg width="35" height="46" viewBox="0 0 35 46" fill="none" xmlns="http://www.w3.org/2000/svg">
<path fill-rule="evenodd" clip-rule="evenodd" d="M34.3041 18.401C35.0119 13.6619 31.4041 11.1143 26.4708 9.41475L28.0711 2.99507L24.1627 2.02121L22.6047 8.27172C21.5787 8.01573 20.5237 7.77422 19.4754 7.53492L21.0445 1.24324L17.1395 0.269379L15.5381 6.68683C14.6879 6.49317 13.8533 6.30174 13.0431 6.10029L13.0476 6.08026L7.65916 4.73466L6.61975 8.90834C6.61975 8.90834 9.51873 9.57279 9.45752 9.61398C11.04 10.0091 11.3271 11.0564 11.2781 11.8867L9.4553 19.2001C9.56436 19.2279 9.70569 19.268 9.86149 19.3303L9.44973 19.2279L6.89352 29.4729C6.69988 29.9537 6.20911 30.6749 5.10294 30.4011C5.14189 30.4579 2.26294 29.6922 2.26294 29.6922L0.323242 34.1664L5.40897 35.434C5.98312 35.5779 6.55031 35.7259 7.11127 35.8723C7.47449 35.9671 7.83511 36.0612 8.19333 36.153L6.57635 42.6473L10.4791 43.6211L12.0816 37.197C13.1466 37.4864 14.1816 37.7535 15.1943 38.005L13.5984 44.3991L17.5057 45.373L19.1226 38.8921C25.7853 40.1531 30.7964 39.6445 32.9031 33.6188C34.6024 28.7662 32.8196 25.967 29.3141 24.1406C31.867 23.5496 33.79 21.8701 34.303 18.401H34.3041ZM25.3757 30.9209C24.2665 35.3747 17.2945 33.5319 14.1074 32.6895L14.1073 32.6895C13.8219 32.614 13.5669 32.5466 13.3491 32.4925L15.4947 23.8902C15.7609 23.9567 16.0861 24.0297 16.4545 24.1123C19.7517 24.8523 26.509 26.3688 25.3768 30.9209H25.3757ZM17.1173 20.1205C19.7767 20.83 25.5734 22.3767 26.5833 18.3308C27.6157 14.1917 21.9789 12.9442 19.226 12.3349C18.9165 12.2664 18.6435 12.206 18.4205 12.1504L16.4752 19.9524C16.6593 19.9983 16.8753 20.0559 17.1173 20.1205Z" fill="white"/>
</svg>
