<svg width="62" height="58" viewBox="0 0 62 58" fill="none" xmlns="http://www.w3.org/2000/svg">
<path fill-rule="evenodd" clip-rule="evenodd" d="M32.4413 2.92519C33.1428 1.5928 31.5311 -0.0204432 30.2109 0.674968C29.1368 1.10727 28.8642 2.67768 29.7002 3.47222C30.4892 4.3001 32.0339 4.01129 32.4413 2.92519ZM17.7456 3.51291C17.8274 2.62995 16.8121 1.88773 16.0101 2.22121C14.8936 2.52165 14.7698 4.29765 15.8529 4.72139C16.6704 5.17694 17.8307 4.47143 17.7456 3.51291ZM45.095 4.74831C43.8416 4.59534 43.6432 2.60486 44.8499 2.20408C45.7858 1.74302 46.6445 2.60762 46.7814 3.50373C46.5852 4.2689 45.9509 4.96951 45.095 4.74831ZM22.2892 10.3186C22.4955 8.74547 20.5821 7.46968 19.2413 8.32633C17.9855 8.97493 17.8128 10.91 18.9523 11.7535C20.1308 12.8274 22.2195 11.9071 22.2892 10.3186ZM39.7106 9.23529C40.3088 7.67803 42.7328 7.63092 43.4136 9.14687C44.0867 10.3266 43.2589 11.7875 42.0597 12.1886C40.4714 12.4881 38.9627 10.7537 39.7106 9.23529ZM30.9541 9.6731C29.6947 9.76427 28.4877 10.7616 28.5008 12.1002C28.429 13.1939 29.2026 14.0873 30.1212 14.5428C30.2134 14.5484 30.3069 14.5559 30.401 14.5634L30.401 14.5634L30.4011 14.5635L30.4011 14.5635L30.4012 14.5635L30.4013 14.5635L30.4014 14.5635L30.4016 14.5635L30.4017 14.5635C30.9205 14.6051 31.4595 14.6483 31.9264 14.384C33.1331 13.845 33.7262 12.2277 33.0583 11.0532C32.7 10.2018 31.7895 9.84228 30.9541 9.6731ZM7.38207 14.0505C8.60694 13.29 10.2595 14.678 9.79577 16.0221C9.54043 17.1846 7.99329 17.6576 7.10887 16.9154C6.16477 16.22 6.3144 14.548 7.38207 14.0505ZM55.3619 15.4934C55.4857 14.168 53.7708 13.2331 52.7316 14.0481C51.6651 14.7096 51.7812 16.4752 52.9173 16.991C53.9489 17.6133 55.4315 16.7019 55.3619 15.4934ZM34.4398 16.4543C36.1547 15.8321 38.1916 16.5767 39.169 18.1211C40.4584 20.0091 39.7724 22.8844 37.7715 23.9677C35.6982 25.249 32.6709 24.1629 31.9052 21.8243C31.0359 19.7307 32.3023 17.1106 34.4398 16.4543ZM29.7544 18.4782C28.8364 16.5143 26.2785 15.754 24.3779 16.6602C22.3522 17.5741 21.4202 20.2698 22.4697 22.2544C23.4056 24.3067 26.134 25.1478 28.0679 24.0384C29.9994 23.0514 30.8348 20.3897 29.7544 18.4782ZM14.303 20.1394C14.4475 18.9025 15.6027 18.0976 16.7682 18.0144C18.024 18.1673 19.0271 19.1525 19.1637 20.4362C19.0813 21.7071 18.1091 22.9492 16.7758 22.9416C15.3089 23.0692 14.0228 21.5951 14.303 20.1394ZM47.591 20.4344C47.658 18.6868 45.5669 17.3979 44.0609 18.2833C42.4441 19.0533 42.3226 21.6003 43.8804 22.5047C45.38 23.5908 47.6943 22.286 47.591 20.4344ZM20.2832 24.8091C22.0445 24.3196 24.0583 25.1582 24.9222 26.7934C25.8684 28.4394 25.4816 30.726 24.012 31.9333C22.1271 33.7041 18.6509 32.9931 17.6478 30.5764C16.495 28.3611 17.8952 25.3922 20.2832 24.8091ZM44.0118 26.5475C43.0914 24.9718 41.0799 24.3052 39.3677 24.7999C36.9619 25.4653 35.6879 28.5486 36.954 30.7303C37.9983 32.8395 40.9382 33.5478 42.836 32.1989C44.6479 31.0372 45.2288 28.3495 44.0118 26.5475ZM8.95496 26.8558C10.4764 26.2746 12.1628 27.9704 11.5464 29.494C11.17 30.8821 9.23331 31.3951 8.23288 30.3718C7.06223 29.4108 7.49566 27.2725 8.95496 26.8558ZM52.3639 26.5955C51.0712 26.6659 50.1489 27.7936 50.1928 29.0669C50.4454 29.6607 50.7523 30.2806 51.3505 30.5878C52.6268 31.2988 54.432 30.2702 54.3366 28.757C54.419 27.6112 53.4058 26.7622 52.3639 26.5955ZM1.47429 27.6033C2.38961 27.1997 3.5218 28.001 3.31281 29.0277C3.26374 30.1903 1.56455 30.6373 0.940303 29.6659C0.388749 28.9913 0.718894 27.9511 1.47429 27.6033ZM61.1209 28.2103C60.8656 27.4497 59.8316 27.1165 59.187 27.58C58.1145 28.1579 58.5349 30.1582 59.8343 30.0386C60.7599 30.179 61.5541 29.0409 61.1209 28.2103ZM25.2547 33.1607C27.6633 32.528 30.2524 34.5568 30.2675 37.0618C30.4247 39.5932 27.8747 41.8379 25.4092 41.2533C23.5035 40.9434 22.0081 39.089 22.0699 37.1438C22.0648 35.2834 23.4547 33.5542 25.2547 33.1607ZM39.8653 37.0934C39.9041 34.5305 37.2378 32.4653 34.7932 33.1555C33.3439 33.5193 32.1166 34.726 31.7965 36.2098C31.1622 38.4365 32.8384 40.9574 35.11 41.2542C37.524 41.7471 39.9944 39.5779 39.8653 37.0934ZM16.4023 34.6975C18.0939 34.4059 19.6798 36.3123 18.9938 37.9347C18.4934 39.6636 16.0025 40.1326 14.9012 38.7204C13.6094 37.3641 14.5738 34.8847 16.4023 34.6975ZM47.6192 37.1071C47.7352 35.4535 45.8837 34.1355 44.3753 34.7737C42.5522 35.359 42.2481 38.1663 43.9189 39.1202C45.3939 40.1828 47.6798 38.9275 47.6192 37.1071ZM52.194 42.6952C51.6034 41.5831 52.6762 40.109 53.8986 40.3149C54.4735 40.3051 54.885 40.7368 55.2572 41.1271L55.3222 41.1951L55.3361 41.3079C55.4151 41.942 55.5058 42.6691 54.9948 43.1483C54.2594 44.0885 52.5935 43.8201 52.194 42.6952ZM9.90662 42.3513C10.1635 41.0021 8.51941 39.8563 7.37692 40.6246C6.28866 41.1847 6.24989 42.9347 7.30181 43.5494C8.28195 44.2264 9.77002 43.5445 9.90662 42.3513ZM29.948 43.1223C31.4436 42.4556 33.3491 43.7709 33.2073 45.4349C33.3182 47.2736 30.9614 48.547 29.4991 47.4428C27.8747 46.4947 28.1455 43.7054 29.948 43.1223ZM22.3613 47.5181C22.4773 46.078 20.7678 44.9087 19.4939 45.5858C18.5964 45.9244 18.2305 46.9246 18.2148 47.8225C18.5216 48.6464 19.1455 49.5129 20.1024 49.5337C21.2576 49.7084 22.4 48.7006 22.3613 47.5181ZM40.6698 45.6066C41.9798 44.7888 43.8416 45.9633 43.7177 47.5034C43.7514 49.113 41.6472 50.144 40.4275 49.0867C39.2465 48.2579 39.3907 46.2656 40.6698 45.6066ZM45.4018 52.6356C44.4556 52.8388 43.7695 53.9117 44.3523 54.8023C44.9505 55.8364 46.6963 55.4665 46.8072 54.2608C46.9671 53.3699 46.1626 52.792 45.4018 52.6356ZM15.1205 54.0289C15.3525 53.3231 15.9147 52.6216 16.7373 52.8051C17.9364 52.8911 18.2923 54.7167 17.2428 55.2793C16.299 55.9221 15.2041 55.0419 15.1205 54.0289ZM31.6729 53.8414C30.7909 53.2867 29.4527 53.7945 29.2232 54.8387C28.8037 55.8936 29.8111 57.1688 30.9278 57.0366C31.5287 57.0522 31.9927 56.6199 32.3538 56.1876C32.424 55.8961 32.4955 55.6042 32.5755 55.3126L32.5705 55.2941C32.4221 54.7383 32.2492 54.0913 31.6729 53.8414Z" fill="white"/>
</svg>
