<svg width="57" height="57" viewBox="0 0 57 57" fill="none" xmlns="http://www.w3.org/2000/svg">
<path fill-rule="evenodd" clip-rule="evenodd" d="M17.4048 23.9878L28.386 13.0115L39.3716 23.9968L45.7575 17.6065L28.386 0.231049L11.0144 17.6021L17.4048 23.9878ZM0.111328 28.5012L6.49941 22.1134L12.8875 28.5012L6.49941 34.8891L0.111328 28.5012ZM28.386 43.9935L17.4048 33.0127L11.0055 39.394L11.0144 39.4029L28.386 56.7695L45.7575 39.394L45.762 39.3895L39.3716 33.0083L28.386 43.9935ZM43.8736 28.5028L50.2617 22.1149L56.6498 28.5028L50.2617 34.8907L43.8736 28.5028ZM28.386 22.014L34.8657 28.498H34.8702L34.8657 28.5025L28.386 34.9865L21.9062 28.5114L21.8973 28.498L21.9062 28.4891L23.0405 27.3549L23.5943 26.8056L28.386 22.014Z" fill="white"/>
</svg>
