<svg width="66" height="65" viewBox="0 0 66 65" fill="none" xmlns="http://www.w3.org/2000/svg">
<path fill-rule="evenodd" clip-rule="evenodd" d="M49.2019 5.59768C50.2483 5.16417 50.9306 4.14263 50.9306 3.0095H50.9319C50.932 2.26652 50.637 1.55395 50.1119 1.02859C49.5868 0.503229 48.8746 0.208121 48.132 0.208206C46.9994 0.207684 45.9781 0.889866 45.5443 1.9366C45.1105 2.98332 45.3498 4.18842 46.1504 4.98985C46.9511 5.79129 48.1555 6.03119 49.2019 5.59768ZM20.1815 3.23166C20.1816 4.36487 19.4994 5.38656 18.453 5.82028C17.4066 6.254 16.2021 6.01432 15.4012 5.21303C14.6003 4.41173 14.3608 3.20663 14.7943 2.15971C15.2278 1.11279 16.2489 0.430242 17.3816 0.430373C18.9279 0.430373 20.1815 1.68455 20.1815 3.23166ZM35.7105 2.62075C34.5254 1.39153 33.1467 -0.0383832 31.2955 0.767495V0.766526C29.327 1.52473 28.9988 4.37737 30.6051 5.69034C32.3006 7.18465 33.9081 8.77604 35.5153 10.3672C36.3639 11.2074 37.2125 12.0475 38.074 12.8733C39.0239 13.8149 40.5373 14.3245 41.7763 13.6483C43.3878 12.9282 43.8678 10.5615 42.6826 9.26825C40.6167 7.084 38.4341 5.01334 36.1442 3.06536C36.0023 2.92339 35.8579 2.77362 35.7105 2.62075ZM58.0605 8.92983C57.6684 7.24938 55.4111 6.63196 54.0003 7.39146H54.0006C52.0172 9.06484 50.2791 10.9917 48.5415 12.9181L48.5414 12.9182L48.5414 12.9183C47.5674 13.9981 46.5935 15.0777 45.5767 16.1124C44.318 17.3815 44.7686 19.8899 46.4385 20.5809C47.5943 21.115 49.0341 20.8506 49.8519 19.8605C52.0941 17.5184 54.3382 15.1766 56.6449 12.8985C57.6981 11.9036 58.658 10.4243 58.0605 8.92983ZM8.91735 7.85711C10.3869 6.97038 12.2036 7.55809 13.291 8.76353C14.8307 10.3182 16.4008 11.8401 17.9697 13.3608C18.8924 14.2552 19.8147 15.1491 20.7302 16.0491C22.3659 17.563 21.2249 20.7673 18.9427 20.7773C17.5417 20.993 16.6229 20.0329 15.7282 19.0978C15.4031 18.7581 15.0812 18.4216 14.7405 18.1462C12.4999 16.2894 10.4469 14.2227 8.41418 12.1393C7.26324 10.9535 7.6073 8.77838 8.91865 7.85711H8.91735ZM14.146 26.7493C15.6823 24.6087 13.2774 21.5022 10.8142 22.4529L10.8171 22.4526C8.64679 23.9246 6.89815 25.9141 5.14974 27.9034C4.12822 29.0656 3.10679 30.2278 2.00138 31.2866C0.341131 32.8265 1.48723 35.9998 3.76943 36.088C5.3417 36.2776 6.35615 35.1096 7.30399 34.0183L7.30406 34.0182C7.5314 33.7565 7.75491 33.4992 7.98137 33.266C8.80239 32.3384 9.68921 31.468 10.5756 30.598L10.5756 30.598C11.829 29.3678 13.0816 28.1384 14.146 26.7493ZM60.7639 29.3216C62.4584 28.2143 65.0149 29.4734 65.0692 31.5174C65.2515 32.9207 64.2835 33.8401 63.3399 34.7363L63.3398 34.7364L63.3398 34.7365C62.9921 35.0667 62.6477 35.3938 62.3654 35.7409C60.5193 37.9651 58.4924 40.0379 56.4003 42.0319C54.8724 43.4769 52.017 42.4627 51.7426 40.3711C51.4552 38.6342 52.7087 37.4262 53.8755 36.3016C54.1604 36.027 54.4401 35.7575 54.691 35.4864C55.6526 34.5933 56.5463 33.6275 57.439 32.6628C58.5104 31.5051 59.5801 30.349 60.7636 29.3226L60.7639 29.3216ZM21.4221 46.7C21.3831 44.7011 18.8856 43.5302 17.2396 44.5151V44.5167C15.8872 45.6979 14.6518 47.0042 13.4152 48.3117L13.4152 48.3118L13.4152 48.3118L13.4151 48.3118L13.4151 48.3118L13.4151 48.3119L13.4151 48.3119L13.4151 48.3119L13.415 48.3119L13.415 48.3119L13.415 48.312L13.415 48.312L13.415 48.312L13.4149 48.312L13.4149 48.3121C12.4252 49.3586 11.4347 50.4058 10.383 51.3903L10.3375 51.4345C9.12426 52.6126 7.56986 54.122 8.21343 55.9848C8.59557 57.9394 11.4655 58.5962 12.8124 57.2341C14.8838 55.2152 16.9359 53.1712 18.7775 50.9431C19.054 50.6016 19.3911 50.2786 19.7315 49.9524C20.6755 49.048 21.6453 48.1187 21.4221 46.7ZM46.4879 44.4415C47.399 44.1283 48.5535 44.1037 49.3233 44.7602C50.2905 45.6796 51.2786 46.577 52.2667 47.4744C54.1905 49.2216 56.1143 50.9688 57.8843 52.8786C58.7119 53.7166 58.7855 55.1226 58.2371 56.1317C57.4625 57.9445 54.8085 57.9884 53.5204 56.7048C52.2834 55.5374 51.0693 54.342 49.8548 53.1463L49.8547 53.1462L49.8546 53.1461L49.8544 53.1459L49.8543 53.1458L49.8542 53.1457L49.8541 53.1456L49.8539 53.1454L49.853 53.1446C48.515 51.8272 47.1766 50.5095 45.8065 49.2281C44.225 47.9984 44.5969 45.1516 46.4876 44.4412L46.4879 44.4415ZM28.465 52.3639C27.4902 51.3302 25.8974 50.6344 24.5419 51.3693L24.5416 51.368C22.9155 52.0788 22.4259 54.4741 23.6307 55.7629C25.6292 57.856 27.6974 59.8894 29.9245 61.7368C30.275 62.0207 30.6042 62.3687 30.9363 62.7199L30.9364 62.72C31.8194 63.6537 32.7242 64.6104 34.1119 64.4461C36.4773 64.4219 37.6121 61.183 35.9338 59.5859C33.3818 57.2438 30.9234 54.8038 28.465 52.3639ZM25.5435 13.4836C27.0898 13.4835 28.3433 12.2294 28.3433 10.6823C28.3433 9.93929 28.0482 9.22672 27.5231 8.70137C26.9979 8.17601 26.2857 7.88092 25.5431 7.881C23.9968 7.88118 22.7434 9.13544 22.7435 10.6825C22.7436 12.2296 23.9972 13.4836 25.5435 13.4836ZM6.48088 17.5268C6.48114 18.66 5.79906 19.6818 4.75271 20.1156C3.70636 20.5495 2.50183 20.3099 1.70085 19.5087C0.899856 18.7075 0.660163 17.5024 1.09354 16.4555C1.52693 15.4085 2.54803 14.7258 3.68067 14.7258C4.42325 14.7258 5.13544 15.0208 5.66059 15.5461C6.18573 16.0714 6.4808 16.7839 6.48088 17.5268ZM65.4316 16.8241C65.4316 18.3713 64.1781 19.6254 62.6317 19.6254C61.0854 19.6254 59.8318 18.3713 59.8318 16.8241C59.8318 15.277 61.0854 14.0229 62.6317 14.0229C64.1781 14.0229 65.4316 15.277 65.4316 16.8241ZM54.9795 27.6747C56.5259 27.6746 57.7793 26.4202 57.7791 24.8731C57.779 24.1302 57.484 23.4177 56.9588 22.8924C56.4337 22.3671 55.7215 22.0721 54.9789 22.0722C53.4326 22.0723 52.1791 23.3267 52.1793 24.8738C52.1795 26.4209 53.4332 27.6749 54.9795 27.6747ZM65.4187 47.4969C65.4187 49.044 64.1652 50.2981 62.6189 50.2982C61.0726 50.2983 59.819 49.0442 59.8189 47.4971C59.8188 45.9501 61.0722 44.6958 62.6185 44.6956C63.3611 44.6955 64.0734 44.9906 64.5985 45.516C65.1237 46.0413 65.4187 46.7539 65.4187 47.4969ZM41.8528 56.9174C42.8991 56.4837 43.5813 55.462 43.5812 54.3288C43.5812 53.5858 43.2861 52.8733 42.761 52.3479C42.2358 51.8226 41.5236 51.5275 40.7809 51.5275C39.6483 51.5275 38.6272 52.2102 38.1938 53.2571C37.7604 54.304 38.0001 55.5091 38.801 56.3103C39.6019 57.1115 40.8064 57.3512 41.8528 56.9174ZM51.6371 61.99C51.6374 63.1232 50.9553 64.145 49.9089 64.5788C48.8626 65.0127 47.6581 64.7731 46.8571 63.9719C46.0561 63.1707 45.8164 61.9656 46.2498 60.9187C46.6831 59.8717 47.7042 59.189 48.8369 59.189C49.5795 59.189 50.2917 59.484 50.8168 60.0093C51.3419 60.5346 51.637 61.2471 51.6371 61.99ZM19.2444 64.5786C20.2908 64.1449 20.973 63.1232 20.9729 61.99C20.9729 60.4429 19.7193 59.1887 18.173 59.1887C17.0403 59.1886 16.0192 59.8711 15.5857 60.918C15.1522 61.965 15.3917 63.1701 16.1926 63.9714C16.9935 64.7727 18.198 65.0123 19.2444 64.5786ZM14.1437 40.0498C14.1438 41.183 13.4616 42.2047 12.4152 42.6385C11.3688 43.0722 10.1643 42.8325 9.36345 42.0312C8.56255 41.2299 8.32299 40.0248 8.7565 38.9779C9.19 37.931 10.2112 37.2484 11.3438 37.2485C12.8902 37.2485 14.1437 38.5027 14.1437 40.0498ZM4.75249 50.7798C5.79885 50.346 6.48101 49.3244 6.48088 48.1912C6.48088 47.4482 6.18585 46.7356 5.6607 46.2103C5.13555 45.6849 4.4233 45.3898 3.68067 45.3899C2.54806 45.3899 1.52698 46.0725 1.09358 47.1194C0.660175 48.1664 0.899808 49.3714 1.70073 50.1727C2.50165 50.9739 3.70613 51.2135 4.75249 50.7798Z" fill="white"/>
</svg>
