<svg width="27" height="25" viewBox="0 0 27 25" fill="none" xmlns="http://www.w3.org/2000/svg">
<path d="M17.6338 20.7514L25.8804 12.5049L17.4845 12.5267C20.5501 12.5186 22.1029 16.2139 19.9518 18.398L17.6338 20.7514Z" fill="#0D1723"/>
<path d="M25.8804 12.5049L20.3827 7.0072L17.6338 4.25835L19.9475 6.58888C22.1267 8.78389 20.5776 12.5186 17.4845 12.5267L25.8804 12.5049Z" fill="#0D1723"/>
<path d="M1.88037 12.5049L17.4845 12.5267M25.8804 12.5049L20.3827 7.0072L17.6338 4.25835M25.8804 12.5049L17.6338 20.7514M25.8804 12.5049L17.4845 12.5267M14.885 1.50951L17.6338 4.25835M14.885 23.5003L17.6338 20.7514M17.6338 4.25835L19.9475 6.58888C22.1267 8.78389 20.5776 12.5186 17.4845 12.5267V12.5267M17.6338 20.7514L19.9518 18.398C22.1029 16.2139 20.5501 12.5186 17.4845 12.5267V12.5267" stroke="#0D1723" stroke-width="2" stroke-linecap="round" stroke-linejoin="round"/>
</svg>
