<svg width="26" height="25" viewBox="0 0 26 25" fill="none" xmlns="http://www.w3.org/2000/svg">
<path d="M9.24654 4.24912L1 12.4957L9.39585 12.4738C6.33031 12.4819 4.77747 8.78669 6.92859 6.6026L9.24654 4.24912Z" fill="#0D1723"/>
<path d="M1 12.4957L6.49769 17.9934L9.24654 20.7422L6.93283 18.4117C4.75364 16.2167 6.30281 12.4819 9.39585 12.4738L1 12.4957Z" fill="#0D1723"/>
<path d="M25 12.4957L9.39585 12.4738M1 12.4957L6.49769 17.9934L9.24654 20.7422M1 12.4957L9.24654 4.24912M1 12.4957L9.39585 12.4738M11.9954 23.491L9.24654 20.7422M11.9954 1.50028L9.24654 4.24912M9.24654 20.7422L6.93283 18.4117C4.75364 16.2167 6.30281 12.4819 9.39585 12.4738V12.4738M9.24654 4.24912L6.92859 6.6026C4.77747 8.78669 6.33031 12.4819 9.39585 12.4738V12.4738" stroke="#0D1723" stroke-width="2" stroke-linecap="round" stroke-linejoin="round"/>
</svg>
