<svg width="24" height="24" viewBox="0 0 24 24" fill="none" xmlns="http://www.w3.org/2000/svg">
<path d="M12 24C18.6274 24 24 18.6274 24 12C24 5.37258 18.6274 0 12 0C5.37258 0 0 5.37258 0 12C0 18.6274 5.37258 24 12 24Z" fill="#FF7900"/>
<g clip-path="url(#clip0_20_506)">
<path d="M16.4727 10.6771C16.6849 9.25859 15.6049 8.49607 14.1281 7.9874L14.6072 6.06587L13.4375 5.77441L12.9711 7.64535C12.6636 7.56865 12.3478 7.49639 12.034 7.42475L12.5037 5.54146L11.3347 5.25L10.8554 7.17091C10.6009 7.11297 10.351 7.05571 10.1085 6.99537L10.1099 6.98933L8.49684 6.58653L8.18568 7.83583C8.18568 7.83583 9.0535 8.03476 9.03521 8.047C9.50887 8.16522 9.59453 8.47878 9.5803 8.7273L9.03459 10.9164C9.0672 10.9247 9.10951 10.9366 9.15619 10.9554C9.11717 10.9457 9.07564 10.9351 9.03255 10.9248L8.26764 13.9914C8.20975 14.1353 8.06283 14.3513 7.73166 14.2693C7.74339 14.2862 6.88151 14.0571 6.88151 14.0571L6.30078 15.396L7.82295 15.7755C8.10612 15.8465 8.38362 15.9208 8.6569 15.9907L8.17287 17.9342L9.34121 18.2257L9.82055 16.3028C10.1397 16.3894 10.4495 16.4693 10.7527 16.5447L10.275 18.4585L11.4447 18.75L11.9287 16.8101C13.9233 17.1876 15.423 17.0354 16.0543 15.2313C16.563 13.7788 16.029 12.941 14.9797 12.3946C15.7439 12.2184 16.3192 11.7155 16.4727 10.6771ZM13.8002 14.4246C13.4387 15.8771 10.9932 15.092 10.2003 14.8951L10.8426 12.3202C11.6354 12.5181 14.178 12.9098 13.8002 14.4246ZM14.162 10.6561C13.8322 11.9773 11.7967 11.3061 11.1364 11.1415L11.7188 8.80619C12.3791 8.97078 14.5054 9.27797 14.162 10.6561Z" fill="white"/>
</g>
<defs>
<clipPath id="clip0_20_506">
<rect width="14.1986" height="13.5" fill="white" transform="translate(4.30078 5.25)"/>
</clipPath>
</defs>
</svg>
