<svg width="24" height="24" viewBox="0 0 24 24" fill="none" xmlns="http://www.w3.org/2000/svg">
<path d="M21.1667 5H2.83333C2.61232 5 2.40036 5.09455 2.24408 5.26285C2.0878 5.43115 2 5.65942 2 5.89744C2 6.13545 2.0878 6.36372 2.24408 6.53202C2.40036 6.70032 2.61232 6.79487 2.83333 6.79487H21.1667C21.3877 6.79487 21.5996 6.70032 21.7559 6.53202C21.9122 6.36372 22 6.13545 22 5.89744C22 5.65942 21.9122 5.43115 21.7559 5.26285C21.5996 5.09455 21.3877 5 21.1667 5Z" fill="#0D1723"/>
<path d="M21.1667 17.2046H2.83333C2.61232 17.2046 2.40036 17.2991 2.24408 17.4674C2.0878 17.6357 2 17.864 2 18.102C2 18.34 2.0878 18.5683 2.24408 18.7366C2.40036 18.9049 2.61232 18.9995 2.83333 18.9995H21.1667C21.3877 18.9995 21.5996 18.9049 21.7559 18.7366C21.9122 18.5683 22 18.34 22 18.102C22 17.864 21.9122 17.6357 21.7559 17.4674C21.5996 17.2991 21.3877 17.2046 21.1667 17.2046Z" fill="#0D1723"/>
<path d="M21.1667 11.1025H2.83333C2.61232 11.1025 2.40036 11.1971 2.24408 11.3654C2.0878 11.5337 2 11.762 2 12C2 12.238 2.0878 12.4663 2.24408 12.6346C2.40036 12.8029 2.61232 12.8974 2.83333 12.8974H21.1667C21.3877 12.8974 21.5996 12.8029 21.7559 12.6346C21.9122 12.4663 22 12.238 22 12C22 11.762 21.9122 11.5337 21.7559 11.3654C21.5996 11.1971 21.3877 11.1025 21.1667 11.1025Z" fill="#0D1723"/>
</svg>
